<svg xmlns="http://www.w3.org/2000/svg" viewBox="0 0 100 100" preserveAspectRatio="xMidYMid" width="200" height="200" style="shape-rendering: auto; display: block; background: transparent;" xmlns:xlink="http://www.w3.org/1999/xlink"><g><g transform="rotate(0 50 50)">
  <rect fill="#66ff00" height="10" width="2" ry="0" rx="0" y="20" x="49">
    <animate repeatCount="indefinite" begin="-0.9722222222222222s" dur="1s" keyTimes="0;1" values="1;0" attributeName="opacity"></animate>
  </rect>
</g><g transform="rotate(10 50 50)">
  <rect fill="#66ff00" height="10" width="2" ry="0" rx="0" y="20" x="49">
    <animate repeatCount="indefinite" begin="-0.9444444444444444s" dur="1s" keyTimes="0;1" values="1;0" attributeName="opacity"></animate>
  </rect>
</g><g transform="rotate(20 50 50)">
  <rect fill="#66ff00" height="10" width="2" ry="0" rx="0" y="20" x="49">
    <animate repeatCount="indefinite" begin="-0.9166666666666666s" dur="1s" keyTimes="0;1" values="1;0" attributeName="opacity"></animate>
  </rect>
</g><g transform="rotate(30 50 50)">
  <rect fill="#66ff00" height="10" width="2" ry="0" rx="0" y="20" x="49">
    <animate repeatCount="indefinite" begin="-0.8888888888888888s" dur="1s" keyTimes="0;1" values="1;0" attributeName="opacity"></animate>
  </rect>
</g><g transform="rotate(40 50 50)">
  <rect fill="#66ff00" height="10" width="2" ry="0" rx="0" y="20" x="49">
    <animate repeatCount="indefinite" begin="-0.8611111111111112s" dur="1s" keyTimes="0;1" values="1;0" attributeName="opacity"></animate>
  </rect>
</g><g transform="rotate(50 50 50)">
  <rect fill="#66ff00" height="10" width="2" ry="0" rx="0" y="20" x="49">
    <animate repeatCount="indefinite" begin="-0.8333333333333334s" dur="1s" keyTimes="0;1" values="1;0" attributeName="opacity"></animate>
  </rect>
</g><g transform="rotate(60 50 50)">
  <rect fill="#66ff00" height="10" width="2" ry="0" rx="0" y="20" x="49">
    <animate repeatCount="indefinite" begin="-0.8055555555555556s" dur="1s" keyTimes="0;1" values="1;0" attributeName="opacity"></animate>
  </rect>
</g><g transform="rotate(70 50 50)">
  <rect fill="#66ff00" height="10" width="2" ry="0" rx="0" y="20" x="49">
    <animate repeatCount="indefinite" begin="-0.7777777777777778s" dur="1s" keyTimes="0;1" values="1;0" attributeName="opacity"></animate>
  </rect>
</g><g transform="rotate(80 50 50)">
  <rect fill="#66ff00" height="10" width="2" ry="0" rx="0" y="20" x="49">
    <animate repeatCount="indefinite" begin="-0.75s" dur="1s" keyTimes="0;1" values="1;0" attributeName="opacity"></animate>
  </rect>
</g><g transform="rotate(90 50 50)">
  <rect fill="#66ff00" height="10" width="2" ry="0" rx="0" y="20" x="49">
    <animate repeatCount="indefinite" begin="-0.7222222222222222s" dur="1s" keyTimes="0;1" values="1;0" attributeName="opacity"></animate>
  </rect>
</g><g transform="rotate(100 50 50)">
  <rect fill="#66ff00" height="10" width="2" ry="0" rx="0" y="20" x="49">
    <animate repeatCount="indefinite" begin="-0.6944444444444444s" dur="1s" keyTimes="0;1" values="1;0" attributeName="opacity"></animate>
  </rect>
</g><g transform="rotate(110 50 50)">
  <rect fill="#66ff00" height="10" width="2" ry="0" rx="0" y="20" x="49">
    <animate repeatCount="indefinite" begin="-0.6666666666666666s" dur="1s" keyTimes="0;1" values="1;0" attributeName="opacity"></animate>
  </rect>
</g><g transform="rotate(120 50 50)">
  <rect fill="#66ff00" height="10" width="2" ry="0" rx="0" y="20" x="49">
    <animate repeatCount="indefinite" begin="-0.6388888888888888s" dur="1s" keyTimes="0;1" values="1;0" attributeName="opacity"></animate>
  </rect>
</g><g transform="rotate(130 50 50)">
  <rect fill="#66ff00" height="10" width="2" ry="0" rx="0" y="20" x="49">
    <animate repeatCount="indefinite" begin="-0.6111111111111112s" dur="1s" keyTimes="0;1" values="1;0" attributeName="opacity"></animate>
  </rect>
</g><g transform="rotate(140 50 50)">
  <rect fill="#66ff00" height="10" width="2" ry="0" rx="0" y="20" x="49">
    <animate repeatCount="indefinite" begin="-0.5833333333333334s" dur="1s" keyTimes="0;1" values="1;0" attributeName="opacity"></animate>
  </rect>
</g><g transform="rotate(150 50 50)">
  <rect fill="#66ff00" height="10" width="2" ry="0" rx="0" y="20" x="49">
    <animate repeatCount="indefinite" begin="-0.5555555555555556s" dur="1s" keyTimes="0;1" values="1;0" attributeName="opacity"></animate>
  </rect>
</g><g transform="rotate(160 50 50)">
  <rect fill="#66ff00" height="10" width="2" ry="0" rx="0" y="20" x="49">
    <animate repeatCount="indefinite" begin="-0.5277777777777778s" dur="1s" keyTimes="0;1" values="1;0" attributeName="opacity"></animate>
  </rect>
</g><g transform="rotate(170 50 50)">
  <rect fill="#66ff00" height="10" width="2" ry="0" rx="0" y="20" x="49">
    <animate repeatCount="indefinite" begin="-0.5s" dur="1s" keyTimes="0;1" values="1;0" attributeName="opacity"></animate>
  </rect>
</g><g transform="rotate(180 50 50)">
  <rect fill="#66ff00" height="10" width="2" ry="0" rx="0" y="20" x="49">
    <animate repeatCount="indefinite" begin="-0.4722222222222222s" dur="1s" keyTimes="0;1" values="1;0" attributeName="opacity"></animate>
  </rect>
</g><g transform="rotate(190 50 50)">
  <rect fill="#66ff00" height="10" width="2" ry="0" rx="0" y="20" x="49">
    <animate repeatCount="indefinite" begin="-0.4444444444444444s" dur="1s" keyTimes="0;1" values="1;0" attributeName="opacity"></animate>
  </rect>
</g><g transform="rotate(200 50 50)">
  <rect fill="#66ff00" height="10" width="2" ry="0" rx="0" y="20" x="49">
    <animate repeatCount="indefinite" begin="-0.4166666666666667s" dur="1s" keyTimes="0;1" values="1;0" attributeName="opacity"></animate>
  </rect>
</g><g transform="rotate(210 50 50)">
  <rect fill="#66ff00" height="10" width="2" ry="0" rx="0" y="20" x="49">
    <animate repeatCount="indefinite" begin="-0.3888888888888889s" dur="1s" keyTimes="0;1" values="1;0" attributeName="opacity"></animate>
  </rect>
</g><g transform="rotate(220 50 50)">
  <rect fill="#66ff00" height="10" width="2" ry="0" rx="0" y="20" x="49">
    <animate repeatCount="indefinite" begin="-0.3611111111111111s" dur="1s" keyTimes="0;1" values="1;0" attributeName="opacity"></animate>
  </rect>
</g><g transform="rotate(230 50 50)">
  <rect fill="#66ff00" height="10" width="2" ry="0" rx="0" y="20" x="49">
    <animate repeatCount="indefinite" begin="-0.3333333333333333s" dur="1s" keyTimes="0;1" values="1;0" attributeName="opacity"></animate>
  </rect>
</g><g transform="rotate(240 50 50)">
  <rect fill="#66ff00" height="10" width="2" ry="0" rx="0" y="20" x="49">
    <animate repeatCount="indefinite" begin="-0.3055555555555556s" dur="1s" keyTimes="0;1" values="1;0" attributeName="opacity"></animate>
  </rect>
</g><g transform="rotate(250 50 50)">
  <rect fill="#66ff00" height="10" width="2" ry="0" rx="0" y="20" x="49">
    <animate repeatCount="indefinite" begin="-0.2777777777777778s" dur="1s" keyTimes="0;1" values="1;0" attributeName="opacity"></animate>
  </rect>
</g><g transform="rotate(260 50 50)">
  <rect fill="#66ff00" height="10" width="2" ry="0" rx="0" y="20" x="49">
    <animate repeatCount="indefinite" begin="-0.25s" dur="1s" keyTimes="0;1" values="1;0" attributeName="opacity"></animate>
  </rect>
</g><g transform="rotate(270 50 50)">
  <rect fill="#66ff00" height="10" width="2" ry="0" rx="0" y="20" x="49">
    <animate repeatCount="indefinite" begin="-0.2222222222222222s" dur="1s" keyTimes="0;1" values="1;0" attributeName="opacity"></animate>
  </rect>
</g><g transform="rotate(280 50 50)">
  <rect fill="#66ff00" height="10" width="2" ry="0" rx="0" y="20" x="49">
    <animate repeatCount="indefinite" begin="-0.19444444444444445s" dur="1s" keyTimes="0;1" values="1;0" attributeName="opacity"></animate>
  </rect>
</g><g transform="rotate(290 50 50)">
  <rect fill="#66ff00" height="10" width="2" ry="0" rx="0" y="20" x="49">
    <animate repeatCount="indefinite" begin="-0.16666666666666666s" dur="1s" keyTimes="0;1" values="1;0" attributeName="opacity"></animate>
  </rect>
</g><g transform="rotate(300 50 50)">
  <rect fill="#66ff00" height="10" width="2" ry="0" rx="0" y="20" x="49">
    <animate repeatCount="indefinite" begin="-0.1388888888888889s" dur="1s" keyTimes="0;1" values="1;0" attributeName="opacity"></animate>
  </rect>
</g><g transform="rotate(310 50 50)">
  <rect fill="#66ff00" height="10" width="2" ry="0" rx="0" y="20" x="49">
    <animate repeatCount="indefinite" begin="-0.1111111111111111s" dur="1s" keyTimes="0;1" values="1;0" attributeName="opacity"></animate>
  </rect>
</g><g transform="rotate(320 50 50)">
  <rect fill="#66ff00" height="10" width="2" ry="0" rx="0" y="20" x="49">
    <animate repeatCount="indefinite" begin="-0.08333333333333333s" dur="1s" keyTimes="0;1" values="1;0" attributeName="opacity"></animate>
  </rect>
</g><g transform="rotate(330 50 50)">
  <rect fill="#66ff00" height="10" width="2" ry="0" rx="0" y="20" x="49">
    <animate repeatCount="indefinite" begin="-0.05555555555555555s" dur="1s" keyTimes="0;1" values="1;0" attributeName="opacity"></animate>
  </rect>
</g><g transform="rotate(340 50 50)">
  <rect fill="#66ff00" height="10" width="2" ry="0" rx="0" y="20" x="49">
    <animate repeatCount="indefinite" begin="-0.027777777777777776s" dur="1s" keyTimes="0;1" values="1;0" attributeName="opacity"></animate>
  </rect>
</g><g transform="rotate(350 50 50)">
  <rect fill="#66ff00" height="10" width="2" ry="0" rx="0" y="20" x="49">
    <animate repeatCount="indefinite" begin="0s" dur="1s" keyTimes="0;1" values="1;0" attributeName="opacity"></animate>
  </rect>
</g><g></g></g><!-- [ldio] generated by https://loading.io --></svg>